<?xml version="1.0" encoding="UTF-8" standalone="no"?>
<!-- Generator: Adobe Illustrator 19.0.0, SVG Export Plug-In . SVG Version: 6.00 Build 0)  -->

<svg
   version="1.1"
   x="0px"
   y="0px"
   viewBox="0 0 213.60001 70.900002"
   xml:space="preserve"
   id="svg6"
   sodipodi:docname="vecteezy_free-ships-silhouettes-vector-set_115343.svg"
   inkscape:version="1.3 (0e150ed6c4, 2023-07-21)"
   width="213.60001"
   height="70.900002"
   xmlns:inkscape="http://www.inkscape.org/namespaces/inkscape"
   xmlns:sodipodi="http://sodipodi.sourceforge.net/DTD/sodipodi-0.dtd"
   xmlns="http://www.w3.org/2000/svg"
   xmlns:svg="http://www.w3.org/2000/svg"><defs
   id="defs6" /><sodipodi:namedview
   id="namedview6"
   pagecolor="#505050"
   bordercolor="#eeeeee"
   borderopacity="1"
   inkscape:showpageshadow="0"
   inkscape:pageopacity="0"
   inkscape:pagecheckerboard="0"
   inkscape:deskcolor="#505050"
   inkscape:zoom="2.1543799"
   inkscape:cx="347.89593"
   inkscape:cy="196.3442"
   inkscape:window-width="2558"
   inkscape:window-height="1360"
   inkscape:window-x="2553"
   inkscape:window-y="0"
   inkscape:window-maximized="0"
   inkscape:current-layer="svg6" />&#10;<style
   type="text/css"
   id="style1">&#10;	.st0{fill:#D5E1E9;}&#10;	.st1{fill:#272B2E;}&#10;</style>&#10;&#10;&#10;<path
   class="st1"
   d="m 213.6,48.7 c 0,1.3 -6.2,18.2 -7.5,20.2 -1.3,2 -4.1,2 -4.1,2 H 13.5 C 11,58.7 0,46.2 0,46.1 c 0,-0.1 44,0.1 43.5,0 v -3.8 l -16.7,-3.6 1,-3.4 16.3,1.8 c 1,-1.8 3.3,-2 4.1,-2 0.8,0 8.3,0 8.3,0 2.8,0 3.3,0.3 3.3,4.1 0,3.8 0,7.1 0,7.1 h 6.6 V 32.1 h 3.8 v -8.9 h -5.1 v -3.8 h 2 L 63,11 l 1.5,-0.8 3.8,7.9 V 0 h 1.8 v 18.3 h 4.6 v -1.9 c 0,-1.6 1.3,-2.9 2.9,-2.9 h 0.6 c 1.6,0 2.9,1.3 2.9,2.9 v 1.9 h 2.8 c 1.8,0 2.3,0.3 2.3,3.3 v 12 c 0,1.8 0.8,4.1 2.3,1.5 1.5,-2.5 6.4,-12 7.9,-14.8 1.5,-2.8 2,-3.1 3.8,-3.1 1.8,0 5.1,0 8.4,0 3.3,0 3.1,2.5 2.5,4.1 -0.5,1.5 -5.8,19 -5.8,19 h 8.6 v -8 c 0,-4 3.2,-7.2 7.2,-7.2 h 8 c 4,0 7.2,3.2 7.2,7.2 v 8 c 0,0 12.5,-0.2 15.5,0 1.7,0.1 2.5,0.6 2.5,2.9 0,2.3 0,4.7 0,4.7 h 4.8 V 41 c 0,-1.9 1.5,-3.4 3.4,-3.4 h 8.1 c 1.9,0 3.4,1.5 3.4,3.4 v 1.3 l 10.8,-3.8 1.3,3.6 -12,4.6 v 2 h 0.8 z"
   id="path5" /></svg>
