<?xml version="1.0" encoding="UTF-8" standalone="no"?>
<!-- Generator: Adobe Illustrator 19.0.0, SVG Export Plug-In . SVG Version: 6.00 Build 0)  -->

<svg
   version="1.1"
   x="0px"
   y="0px"
   viewBox="0 0 222.80001 56.8"
   xml:space="preserve"
   id="svg6"
   sodipodi:docname="vecteezy_free-ships-silhouettes-vector-set_115343.svg"
   inkscape:version="1.3 (0e150ed6c4, 2023-07-21)"
   width="222.8"
   height="56.799999"
   xmlns:inkscape="http://www.inkscape.org/namespaces/inkscape"
   xmlns:sodipodi="http://sodipodi.sourceforge.net/DTD/sodipodi-0.dtd"
   xmlns="http://www.w3.org/2000/svg"
   xmlns:svg="http://www.w3.org/2000/svg"><defs
   id="defs6" /><sodipodi:namedview
   id="namedview6"
   pagecolor="#505050"
   bordercolor="#eeeeee"
   borderopacity="1"
   inkscape:showpageshadow="0"
   inkscape:pageopacity="0"
   inkscape:pagecheckerboard="0"
   inkscape:deskcolor="#505050"
   inkscape:zoom="2.1543799"
   inkscape:cx="347.89593"
   inkscape:cy="196.3442"
   inkscape:window-width="2558"
   inkscape:window-height="1360"
   inkscape:window-x="2553"
   inkscape:window-y="0"
   inkscape:window-maximized="0"
   inkscape:current-layer="svg6" />&#10;<style
   type="text/css"
   id="style1">&#10;	.st0{fill:#D5E1E9;}&#10;	.st1{fill:#272B2E;}&#10;</style>&#10;&#10;&#10;<path
   class="st1"
   d="M 201.1,45.6 V 29 h -1.5 v 16.9 h -2.4 L 194.3,48 V 39.1 H 172.2 V 48 h -1.3 V 3.4 h -1.5 l -0.9,12 h -7.6 l -0.7,-12 h -1.6 v 35.7 h 4.6 V 48 h -6.9 V 39.1 H 113.5 V 48 h -1.7 V 3.4 h -1.5 l -0.9,12 h -7.6 l -0.7,-12 h -1.6 v 35.7 h 4.6 V 48 H 97.2 V 39.1 H 54.4 V 48 h -5.5 c 0,-0.3 0,-8.9 0,-8.9 H 53 V 4.7 H 51.5 L 47.9,30.8 44.3,0 41.6,5.2 15.5,18.4 V 13.6 H 14 V 44.1 H 0 l 3.3,12.7 h 208.2 c 2.1,-4.4 11.3,-13.6 11.3,-13.6 -6.6,1.8 -21.7,2.4 -21.7,2.4 z M 51.3,17.5 V 37.8 H 48.9 Z M 32.3,29 v 2.7 H 27 v 3 H 25.2 V 22.6 h -5 V 34.4 H 16.1 V 20.8 l 14.4,-7.4 4.3,15.7 H 32.3 Z M 35.6,25.6 32,12.7 35.6,10.8 Z m 5.6,0.2 v -8.3 h -2.1 v 8.3 H 36.8 V 10.4 l 5.3,-2.7 2.1,18.1 z m 23.5,21 h -9 v -2.7 h 9 z m 0,-3.8 h -9 v -2.7 h 9 z m 10.4,3.8 h -9 v -2.7 h 9 z m 0,-3.8 h -9 v -2.7 h 9 z m 10.5,3.8 h -9 v -2.7 h 9 z m 0,-3.8 h -9 v -2.7 h 9 z M 96,46.8 h -9 v -2.7 h 9 z M 96,43 h -9 v -2.7 h 9 z m 5.6,-5.7 V 23.1 l 1.9,14.2 z m 2.2,-5.2 -1.6,-14.7 h 2.4 z m 3.1,-14.6 h 2.4 l -1.6,14.7 z m 3,19.8 H 108 l 1.9,-14.2 z m 13.9,9.5 h -9 v -2.7 h 9 z m 0,-3.8 h -9 v -2.7 h 9 z m 10.4,3.8 h -9 v -2.7 h 9 z m 0,-3.8 h -9 v -2.7 h 9 z m 10.4,3.8 h -9 v -2.7 h 9 z m 0,-3.8 h -9 v -2.7 h 9 z m 10.5,3.8 h -9 v -2.7 h 9 z m 0,-3.8 h -9 v -2.7 h 9 z m 5.6,-6 V 22.8 l 1.9,14.2 z m 2.2,-5.1 -1.6,-14.7 h 2.4 z M 166,17.2 h 2.4 l -1.6,14.7 z m 3,19.8 h -1.9 L 169,22.8 Z m 13.6,9.8 h -9 v -2.7 h 9 z m 0,-3.8 h -9 v -2.7 h 9 z m 10.4,3.8 h -9 v -2.7 h 9 z m 0,-3.8 h -9 v -2.7 h 9 z"
   id="path2" /></svg>
