<?xml version="1.0" encoding="UTF-8" standalone="no"?>
<!-- Generator: Adobe Illustrator 19.0.0, SVG Export Plug-In . SVG Version: 6.00 Build 0)  -->

<svg
   version="1.1"
   x="0px"
   y="0px"
   viewBox="0 0 211.53276 52.133335"
   xml:space="preserve"
   id="svg6"
   sodipodi:docname="vecteezy_free-ships-silhouettes-vector-set_115343.svg"
   inkscape:version="1.3 (0e150ed6c4, 2023-07-21)"
   width="211.53276"
   height="52.133335"
   xmlns:inkscape="http://www.inkscape.org/namespaces/inkscape"
   xmlns:sodipodi="http://sodipodi.sourceforge.net/DTD/sodipodi-0.dtd"
   xmlns="http://www.w3.org/2000/svg"
   xmlns:svg="http://www.w3.org/2000/svg"><defs
   id="defs6" /><sodipodi:namedview
   id="namedview6"
   pagecolor="#505050"
   bordercolor="#eeeeee"
   borderopacity="1"
   inkscape:showpageshadow="0"
   inkscape:pageopacity="0"
   inkscape:pagecheckerboard="0"
   inkscape:deskcolor="#505050"
   inkscape:zoom="2.1543799"
   inkscape:cx="347.89593"
   inkscape:cy="196.3442"
   inkscape:window-width="2558"
   inkscape:window-height="1360"
   inkscape:window-x="2553"
   inkscape:window-y="0"
   inkscape:window-maximized="0"
   inkscape:current-layer="svg6" />&#10;<style
   type="text/css"
   id="style1">&#10;	.st0{fill:#D5E1E9;}&#10;	.st1{fill:#272B2E;}&#10;</style>&#10;&#10;&#10;<path
   class="st1"
   d="m 211.31365,30 c -0.6,-3.9 -0.6,-5.1 -6.3,-5.1 -5.7,0 -88.7,0 -88.7,0 v -4.2 c 0,0 0.3,-2.4 -2.1,-2.4 -3.9,0 -6,0 -6,0 0,0 0,-3 0,-5.4 0,-2.6 -0.1,-3.3 -2.4,-3.3 -2.4,0 -11.999999,0 -11.999999,0 V 0 h -2.7 v 9.5 c 0,0 -6,0 -8.4,0 -2.4,0 -3.3,0.6 -3.3,3.3 0,2.7 0,12 0,12 h -0.7 -67.9 c -4.1999997,0 -8.2999997,1.4 -9.89999967,6.9 -0.9,3 -1.5,6.9 0,11.1 1.89999997,5.4 6.59999997,8.8 10.79999967,9.2 3.3,0.3 164.999999,0 164.999999,0 0,0 3.6,-4.4 7.8,-4.4 4.2,0 15,0 15,0 l -1.2,3.9 h 3.3 l 3.9,-10.2 c 0,0 1.5,-0.3 3.6,-1.2 2.2,-0.8 2.8,-6.2 2.2,-10.1 z m -10.8,14.7 h -10.5 c 6.5,-1.1 11.6,-2.6 11.6,-2.6 z"
   id="path6"
   inkscape:export-filename="Submarine.svg"
   inkscape:export-xdpi="96"
   inkscape:export-ydpi="96" /></svg>
